<?xml version="1.0" standalone="no"?>
<!DOCTYPE svg PUBLIC "-//W3C//DTD SVG 20010904//EN"
 "http://www.w3.org/TR/2001/REC-SVG-20010904/DTD/svg10.dtd">
<svg version="1.0" xmlns="http://www.w3.org/2000/svg"
 width="512.000000pt" height="512.000000pt" viewBox="0 0 512.000000 512.000000"
 preserveAspectRatio="xMidYMid meet">
<metadata>
Created by potrace 1.14, written by Peter Selinger 2001-2017
</metadata>
<g transform="translate(0.000000,512.000000) scale(0.100000,-0.100000)"
fill="#000000" stroke="none">
<path d="M392 4495 c-187 -43 -341 -197 -381 -383 -8 -37 -11 -336 -11 -1000
0 -893 1 -951 19 -1008 54 -178 189 -308 362 -349 48 -11 126 -15 312 -15
l247 0 1 -52 c6 -401 8 -430 31 -471 40 -71 129 -104 201 -74 19 9 119 79 222
156 102 78 189 141 192 141 3 0 23 -20 45 -45 23 -27 65 -57 105 -77 l65 -32
209 -2 c115 0 211 -3 213 -5 1 -2 10 -25 20 -52 11 -30 31 -57 54 -75 l35 -27
410 -3 410 -3 51 -33 c28 -18 115 -73 194 -122 78 -49 220 -138 315 -197 211
-133 240 -148 286 -151 70 -5 154 60 166 127 4 26 8 110 14 355 l1 22 245 0
c137 0 267 5 297 11 179 37 334 183 380 358 15 60 17 135 15 831 l-2 765 -24
60 c-78 196 -257 324 -456 326 -29 1 -66 -6 -82 -15 -42 -21 -81 -70 -89 -111
l-6 -35 -207 0 -206 0 1 377 c1 343 -1 384 -18 448 -47 170 -163 293 -328 347
l-65 21 -1597 1 c-1118 1 -1612 -2 -1646 -9z"/>
</g>
</svg>
